<svg width="50" height="50" viewBox="0 0 50 50" fill="none" xmlns="http://www.w3.org/2000/svg">
<path d="M34.5947 0.726046H31.153C30.5392 0.725484 29.9313 0.845897 29.3641 1.0804C28.7968 1.31491 28.2813 1.6589 27.8471 2.09273C27.4129 2.52656 27.0684 3.04171 26.8334 3.60874C26.5984 4.17577 26.4774 4.78356 26.4774 5.39736C26.4774 6.01117 26.5984 6.61896 26.8334 7.18599C27.0684 7.75302 27.4129 8.26817 27.8471 8.702C28.2813 9.13582 28.7968 9.47982 29.3641 9.71433C29.9313 9.94883 30.5392 10.0692 31.153 10.0687H34.5947C35.8329 10.0675 37.0199 9.57489 37.8951 8.69898C38.7702 7.82306 39.2617 6.63553 39.2617 5.39736C39.2617 4.15919 38.7702 2.97167 37.8951 2.09575C37.0199 1.21983 35.8329 0.727178 34.5947 0.726046ZM34.5947 8.46541H31.153C30.3393 8.46541 29.5589 8.14217 28.9836 7.5668C28.4082 6.99143 28.085 6.21106 28.085 5.39736C28.085 4.58367 28.4082 3.8033 28.9836 3.22793C29.5589 2.65256 30.3393 2.32932 31.153 2.32932H34.5947C35.4084 2.32932 36.1888 2.65256 36.7641 3.22793C37.3395 3.8033 37.6627 4.58367 37.6627 5.39736C37.6627 6.21106 37.3395 6.99143 36.7641 7.5668C36.1888 8.14217 35.4084 8.46541 34.5947 8.46541Z" fill="#727BD4"/>
<path d="M39.8565 38.7563V35.4101C39.8563 35.2464 39.7912 35.0895 39.6755 34.9738C39.5597 34.8581 39.4029 34.793 39.2392 34.7928H24.1324V32.0639C24.1324 31.9002 24.0673 31.7431 23.9515 31.6273C23.8358 31.5115 23.6787 31.4465 23.5149 31.4465C23.3512 31.4465 23.1941 31.5115 23.0783 31.6273C22.9626 31.7431 22.8975 31.9002 22.8975 32.0639V34.7928H7.74567C7.58197 34.7929 7.42501 34.858 7.30922 34.9737C7.19344 35.0895 7.12828 35.2464 7.12805 35.4101V38.7563C7.12805 38.92 7.1931 39.0771 7.3089 39.1929C7.42469 39.3086 7.58174 39.3737 7.7455 39.3737C7.90925 39.3737 8.0663 39.3086 8.1821 39.1929C8.29789 39.0771 8.36294 38.92 8.36294 38.7563V36.0275H22.9066V38.7563C22.9066 38.92 22.9716 39.0771 23.0874 39.1929C23.2032 39.3086 23.3603 39.3737 23.524 39.3737C23.6878 39.3737 23.8448 39.3086 23.9606 39.1929C24.0764 39.0771 24.1415 38.92 24.1415 38.7563V36.0275H38.6216V38.7563C38.6216 38.92 38.6867 39.0771 38.8025 39.1929C38.9182 39.3086 39.0753 39.3737 39.239 39.3737C39.4028 39.3737 39.5599 39.3086 39.6757 39.1929C39.7914 39.0771 39.8565 38.92 39.8565 38.7563Z" fill="#2535C5"/>
<path d="M42.2715 15.2953H33.5467V12.4855C33.5469 12.4001 33.5303 12.3154 33.4977 12.2363C33.4652 12.1573 33.4173 12.0855 33.357 12.025C33.2966 11.9645 33.2249 11.9165 33.1459 11.8837C33.067 11.8509 32.9824 11.8341 32.8969 11.8341C32.8114 11.8341 32.7268 11.8509 32.6478 11.8837C32.5689 11.9165 32.4972 11.9645 32.4368 12.025C32.3764 12.0855 32.3286 12.1573 32.296 12.2363C32.2635 12.3154 32.2468 12.4001 32.247 12.4855V15.2953H23.4752C23.3029 15.2955 23.1377 15.3641 23.0159 15.4859C22.894 15.6077 22.8255 15.7729 22.8253 15.9452V19.4049C22.8257 19.577 22.8944 19.7419 23.0163 19.8635C23.1381 19.985 23.3032 20.0533 23.4753 20.0533C23.6475 20.0533 23.8126 19.985 23.9344 19.8635C24.0563 19.7419 24.1249 19.577 24.1254 19.4049V16.595H41.6217V19.4049C41.6215 19.4903 41.6382 19.575 41.6707 19.654C41.7033 19.7331 41.7511 19.8049 41.8115 19.8654C41.8718 19.9259 41.9436 19.9739 42.0225 20.0067C42.1015 20.0395 42.1861 20.0563 42.2716 20.0563C42.357 20.0563 42.4417 20.0395 42.5206 20.0067C42.5996 19.9739 42.6713 19.9259 42.7316 19.8654C42.792 19.8049 42.8398 19.7331 42.8724 19.654C42.905 19.575 42.9216 19.4903 42.9214 19.4049V15.9452C42.9212 15.7729 42.8527 15.6077 42.7309 15.4859C42.609 15.3641 42.4438 15.2955 42.2715 15.2953Z" fill="#2535C5"/>
<path d="M28.9103 25.8499C28.9103 25.33 28.808 24.8151 28.609 24.3347C28.4101 23.8543 28.1185 23.4178 27.7508 23.0501C27.3832 22.6824 26.9468 22.3907 26.4664 22.1917C25.986 21.9926 25.4712 21.8902 24.9512 21.8901H22.034C20.9839 21.8901 19.9768 22.3073 19.2343 23.0498C18.4917 23.7924 18.0746 24.7995 18.0746 25.8496C18.0746 26.8997 18.4917 27.9068 19.2343 28.6493C19.9768 29.3918 20.9839 29.809 22.034 29.809H24.9512C26.0012 29.8089 27.0082 29.3918 27.7506 28.6494C28.4931 27.9069 28.9102 26.8999 28.9103 25.8499Z" fill="#727BD4"/>
<path d="M43.7135 21.8901H40.7963C39.7462 21.8901 38.7391 22.3073 37.9966 23.0498C37.2541 23.7924 36.8369 24.7995 36.8369 25.8496C36.8369 26.8997 37.2541 27.9068 37.9966 28.6493C38.7391 29.3918 39.7462 29.809 40.7963 29.809H43.7135C44.7636 29.809 45.7707 29.3918 46.5133 28.6493C47.2558 27.9068 47.673 26.8997 47.673 25.8496C47.673 24.7995 47.2558 23.7924 46.5133 23.0498C45.7707 22.3073 44.7636 21.8901 43.7135 21.8901Z" fill="#727BD4"/>
<path d="M9.20448 41.3551H6.2873C5.23719 41.3551 4.2301 41.7723 3.48757 42.5148C2.74503 43.2573 2.32788 44.2644 2.32788 45.3145C2.32788 46.3646 2.74503 47.3717 3.48757 48.1142C4.2301 48.8568 5.23719 49.2739 6.2873 49.2739H9.20448C10.2546 49.2739 11.2617 48.8568 12.0042 48.1142C12.7467 47.3717 13.1639 46.3646 13.1639 45.3145C13.1639 44.2644 12.7467 43.2573 12.0042 42.5148C11.2617 41.7723 10.2546 41.3551 9.20448 41.3551Z" fill="#727BD4"/>
<path d="M24.9512 41.3551H22.034C20.9839 41.3551 19.9768 41.7723 19.2343 42.5148C18.4917 43.2573 18.0746 44.2644 18.0746 45.3145C18.0746 46.3646 18.4917 47.3717 19.2343 48.1142C19.9768 48.8568 20.9839 49.2739 22.034 49.2739H24.9512C26.0013 49.2739 27.0084 48.8568 27.7509 48.1142C28.4935 47.3717 28.9106 46.3646 28.9106 45.3145C28.9106 44.2644 28.4935 43.2573 27.7509 42.5148C27.0084 41.7723 26.0013 41.3551 24.9512 41.3551Z" fill="#727BD4"/>
<path d="M40.7245 41.3551H37.8073C36.7572 41.3551 35.7501 41.7723 35.0076 42.5148C34.2651 43.2573 33.8479 44.2644 33.8479 45.3145C33.8479 46.3646 34.2651 47.3717 35.0076 48.1142C35.7501 48.8568 36.7572 49.2739 37.8073 49.2739H40.7245C41.7746 49.2739 42.7817 48.8568 43.5242 48.1142C44.2668 47.3717 44.6839 46.3646 44.6839 45.3145C44.6839 44.2644 44.2668 43.2573 43.5242 42.5148C42.7817 41.7723 41.7746 41.3551 40.7245 41.3551Z" fill="#727BD4"/>
</svg>
