<svg width="50" height="50" viewBox="0 0 50 50" fill="none" xmlns="http://www.w3.org/2000/svg">
<path d="M44.8611 24.9603C43.9484 30.7639 42.1726 32.4603 39.0278 36.3591C35.8829 39.6627 31.3591 45.1786 24.9504 44.871C19.1468 43.9583 17.4504 42.1825 13.5516 39.0377C10.248 35.8929 4.73214 31.369 5.03968 24.9603C5.95238 19.1567 7.72817 17.4603 10.873 13.5615C14.0179 10.2579 18.5417 4.74206 24.9504 5.0496C30.754 5.96229 32.4504 7.73809 36.3492 10.8829C39.6528 14.0278 45.1686 18.5516 44.8611 24.9603Z" fill="#2535C5"/>
<path d="M24.9602 36.5575C24.6527 36.5575 24.3452 36.4782 24.0773 36.3194L21.2797 34.6627C20.863 34.4246 21.0614 34.3452 21.2003 34.2956C21.7559 34.0972 21.8749 34.0575 22.4702 33.7202C22.5297 33.6806 22.619 33.7004 22.6785 33.7401L24.8313 35.0198C24.9106 35.0595 25.0198 35.0595 25.0892 35.0198L33.4721 30.1786C33.5515 30.1389 33.6011 30.0397 33.6011 29.9504V20.2778C33.6011 20.1786 33.5515 20.0992 33.4721 20.0496L25.0892 15.2183C25.0098 15.1687 24.9106 15.1687 24.8313 15.2183L16.4583 20.0496C16.3789 20.0992 16.3293 20.1885 16.3293 20.2778V29.9504C16.3293 30.0397 16.3789 30.129 16.4583 30.1786L18.7499 31.5079C19.9999 32.1329 20.7539 31.3988 20.7539 30.6647V21.1111C20.7539 20.9722 20.863 20.873 21.0019 20.873H22.0634C22.1924 20.873 22.3015 20.9821 22.3015 21.1111V30.6548C22.3015 32.3214 21.3987 33.2738 19.8214 33.2738C19.3352 33.2738 18.9583 33.2738 17.8868 32.748L15.6845 31.4782C15.1388 31.1607 14.8015 30.5754 14.8015 29.9504V20.2778C14.8015 19.6528 15.1388 19.0675 15.6845 18.75L24.0674 13.9087C24.5932 13.6111 25.3075 13.6111 25.8333 13.9087L34.2162 18.75C34.7618 19.0675 35.0991 19.6528 35.0991 20.2778V29.9504C35.0991 30.5754 34.7618 31.1607 34.2162 31.4782L25.8333 36.3194C25.5753 36.4683 25.2678 36.5575 24.9602 36.5575Z" fill="white"/>
<path d="M27.5496 29.8909C23.879 29.8909 23.1151 28.2044 23.1151 26.7956C23.1151 26.6568 23.2242 26.5575 23.3532 26.5575H24.4346C24.5536 26.5575 24.6528 26.6468 24.6727 26.7659C24.8314 27.8671 25.3274 28.4226 27.5397 28.4226C29.3056 28.4226 30.0596 28.0258 30.0596 27.0833C30.0596 26.5476 29.8512 26.1409 27.1032 25.873C24.8115 25.6448 23.3929 25.1389 23.3929 23.3036C23.3929 21.6171 24.8215 20.6052 27.2123 20.6052C29.9008 20.6052 31.2302 21.5377 31.3988 23.5318C31.4088 23.6012 31.379 23.6706 31.3393 23.7202C31.2897 23.7698 31.2302 23.7996 31.1607 23.7996H30.0695C29.9604 23.7996 29.8611 23.7202 29.8314 23.6111C29.5734 22.4504 28.9385 22.0833 27.2123 22.0833C25.2877 22.0833 25.0596 22.7579 25.0596 23.254C25.0596 23.8591 25.3274 24.0377 27.9266 24.3849C30.506 24.7222 31.7262 25.2083 31.7262 27.0139C31.7262 28.8393 30.1984 29.8909 27.5496 29.8909Z" fill="white"/>
</svg>
