<svg width="50" height="50" viewBox="0 0 50 50" fill="none" xmlns="http://www.w3.org/2000/svg">
<path d="M15.3652 30.5509C14.457 31.0472 13.0887 31.8511 12.0301 32.7255C10.2922 34.1595 9.92852 36.1485 10.8453 36.6132C11.6934 37.0427 13.6732 36.5317 15.0902 35.1813C16.5773 33.7636 17.1906 31.9663 16.5572 29.926C16.4828 29.9648 16.4098 30.0037 16.3381 30.0398L16.3396 30.0426L16.2436 30.0902C15.8738 30.283 15.5717 30.4421 15.3652 30.5509ZM40.8869 29.9073C40.3725 30.884 40.3467 31.1984 40.5029 31.2962C41.2494 31.0619 42.4844 30.4972 42.4941 28.984C42.4957 28.7574 42.4385 28.5142 42.3467 28.2602C41.5486 28.8776 41.0887 29.524 40.8869 29.9073ZM48.8967 26.9538C46.9025 26.7508 45.3465 26.9951 44.1389 27.4347C44.3625 27.9433 44.5344 28.4729 44.5586 29.0066C44.6146 30.1777 43.692 31.0445 42.7305 31.6632C42.1689 32.024 41.5715 32.2644 41.0699 32.4096C40.6689 32.5574 40.1359 32.7102 39.7576 32.6427C38.9236 32.4946 38.4797 31.8474 39.0471 30.4195C39.3535 29.6468 40.2375 28.4706 41.6645 27.4574C41.3393 26.8724 40.9768 26.2764 40.792 25.7288C40.4279 24.6492 40.318 23.9967 40.318 23.9967C40.318 23.9967 39.1418 26.1272 37.6244 28.0648C37.5369 28.1774 37.4496 28.2878 37.3621 28.3979C37.6602 29.003 37.8949 29.6429 37.9268 30.2881C37.9826 31.4591 37.4023 32.3446 36.4395 32.962C35.9182 33.2979 35.3621 33.5298 34.885 33.6774C34.5799 33.7938 33.9594 33.9852 33.077 34.0368C32.5943 34.0656 32.1301 34.0395 31.8709 33.8678C31.5141 33.6323 31.4711 33.3417 31.6559 32.9446C31.8121 32.6076 32.9811 31.4417 33.9611 30.4209C34.2318 30.139 34.4897 29.8509 34.7203 29.5842L34.7146 29.5728C34.7146 29.573 34.8922 29.3726 35.1803 29.0231C34.8221 28.3492 34.368 27.6477 34.1545 27.0115C33.7904 25.932 33.6803 25.2793 33.6803 25.2793C33.6803 25.2793 32.4881 27.9497 31.2461 30.0815C30.285 31.7325 29.643 32.733 29.3537 33.1714L29.3508 33.189C29.3508 33.189 29.3076 33.253 29.2332 33.3532L29.1775 33.4344L29.176 33.4269C28.8535 33.8429 28.1301 34.6581 27.4109 34.6581C25.4367 34.6581 26.1615 31.1549 26.1615 31.1549C26.1615 31.1549 25.5844 32.4525 24.9338 33.566C24.4039 34.474 23.9211 35.2433 22.8652 35.2433C22.5615 35.2433 22.0801 35.2356 21.6803 34.9035C20.7734 34.1508 20.0801 32.2393 20.216 30.759C20.332 29.5003 20.5541 28.6284 20.8578 27.9009C20.3162 28.1588 19.6902 28.4646 19.0527 28.7916L18.0727 29.2962L18.1043 29.3463C18.915 30.7166 19.1314 33.7189 17.3635 36.0235C15.5957 38.3293 12.3049 39.7322 9.09863 38.9532C8.06406 38.7013 6.50117 36.8313 7.84922 34.2248C9.03828 31.9264 13.7904 29.7533 15.0428 29.211L15.3865 29.0456C12.8896 27.1368 6.65449 24.5617 5.78066 20.6062C5.53418 19.4927 6.13164 16.8299 9.87363 13.7689C13.0211 11.195 17.3994 9.22346 21.4439 7.96715C28.2389 5.85674 35.4182 7.10162 36.5227 10.8868C37.6086 14.6093 33.9125 19.062 29.1789 20.6627C24.9525 22.0917 21.4582 21.8651 20.0227 21.4532C18.3908 20.9847 17.4338 20.0439 17.2004 19.5129C17.1086 19.305 16.9508 18.9557 17.2004 18.8354C17.3535 18.7615 17.415 18.7791 17.8248 19.1748C18.2146 19.5506 19.7818 20.559 22.759 20.267C30.5715 19.5018 35.2775 14.1948 33.7904 11.339C32.749 9.34002 26.7275 8.43814 19.2045 11.716C10.0211 15.7165 9.52266 19.0144 9.44395 20.267C9.22891 23.7125 14.3076 25.525 17.0557 28.0875L17.1615 28.189C17.6758 27.941 18.2189 27.6793 18.7518 27.4238C20.1373 26.7586 21.4439 26.1347 22.0527 25.8441C23.0199 24.6158 24.9824 23.2603 26.3994 23.2603C28.6645 23.2603 27.8865 26.1049 27.8865 26.1049C27.8865 26.1049 27.9324 25.9747 27.9939 25.9735C28.0584 25.9719 28.3078 25.5987 29.007 25.8216C29.7262 26.0521 29.5627 26.4931 29.5672 26.5381C29.5758 26.6257 28.7176 29.1545 28.3609 30.7765C28.1902 31.5506 28.2891 32.1144 28.3395 32.1144C28.4096 32.1144 28.5529 31.9177 28.6861 31.7061L28.6832 31.6997C28.6832 31.6997 28.7834 31.5395 28.9512 31.2514L28.9842 31.1912L28.9855 31.1939C29.1834 30.8557 29.4611 30.3584 29.782 29.7422C30.4109 28.5311 32.8105 23.8554 33.0141 23.3381C33.2174 22.8209 33.3234 22.2861 33.4238 22.0567C33.5227 21.8276 34.3709 21.6547 35.3621 21.661C36.3535 21.6673 36.4541 22.0368 36.4609 22.1132C36.4682 22.1895 35.9896 23.2154 35.8793 23.9405C35.7705 24.6658 35.8752 25.0276 35.9654 25.6364C36.0242 26.0346 36.3092 26.5395 36.6461 27.1119C37.6719 25.6463 39.4768 22.8433 39.6502 22.0579C39.7689 21.5207 39.9596 21.0059 40.06 20.7765C40.1602 20.5474 41.007 20.3747 41.9982 20.3808C42.9897 20.3871 43.0898 20.7566 43.0971 20.833C43.1043 20.9095 42.6242 21.9352 42.5154 22.6605C42.4064 23.3844 42.5113 23.7477 42.6014 24.3564C42.6789 24.8774 43.14 25.5776 43.5973 26.374C44.8449 25.8366 46.3135 25.476 48.0328 25.4685C48.7447 25.4649 49.5715 25.5274 49.9984 25.6438V13.661C49.9984 12.8156 49.5025 12.0366 48.6646 11.6146L26.2922 0.316638C25.4557 -0.105546 24.4312 -0.105546 23.5945 0.316638L1.28379 11.6091C0.44707 12.0313 0 12.8117 0 13.6557V36.2613C0 37.1054 0.449805 37.8857 1.28516 38.3078L23.6318 49.6091C24.4684 50.0327 25.4828 50.0327 26.3193 49.6091L48.6762 38.3078C49.5127 37.8844 50 37.1052 50 36.2613V27.1255C49.7162 27.0525 49.3008 26.995 48.8967 26.9538ZM24.8279 25.7701C24.348 26.2397 23.5301 27.4508 23.1475 28.4644C22.3867 30.477 22.7162 32.5224 23.2549 32.6453C23.8838 32.7892 24.9154 30.0989 25.4094 29.0467C25.7189 28.3878 26.9225 25.4634 26.6588 25.0726C26.4529 24.767 25.6002 25.0137 24.8279 25.7701ZM33.5316 32.5537C33.5316 32.5537 33.3799 32.6791 33.4455 32.7141C33.5344 32.7605 33.7264 32.7003 33.9355 32.605C34.5273 32.2796 35.8553 31.4678 35.8582 30.2666C35.8582 30.2317 35.8566 30.1979 35.8539 30.1615C35.5459 30.5148 35.2621 30.8291 35.0172 31.0958C34.5988 31.5504 33.5316 32.5537 33.5316 32.5537Z" fill="#2535C5"/>
</svg>
